<svg width="32" height="32" viewBox="0 0 32 32" fill="none" xmlns="http://www.w3.org/2000/svg">
<rect width="32" height="32" rx="8" fill="#178CF8"/>
<path d="M16 7C20.9812 7 25 11.2303 25 16.4737C25 17.5788 24.8116 18.6342 24.4832 19.6192C23.9557 20.9502 22.9421 22.1309 21.0273 23.0757C20.8822 23.147 20.7578 23.2579 20.6669 23.3968C20.5761 23.5357 20.5221 23.6976 20.5105 23.8657L20.5035 23.9842C20.5016 24.0069 20.5004 24.0298 20.5 24.0526C20.5 24.5879 20.1085 25 19.6 25H12.4C11.8944 25 11.5079 24.5909 11.5035 24.06L11.507 24.0027C11.5202 23.8112 11.4779 23.6201 11.3856 23.4546C11.2933 23.289 11.1554 23.1569 10.9902 23.0757C8.98606 22.0868 7.95971 20.8405 7.45176 19.4305C7.16258 18.4999 7 17.5078 7 16.4737V16.47C7.00191 11.2283 11.02 7 16 7ZM13.2912 11.7276C13.1122 11.7276 12.9372 11.7839 12.7887 11.8892C12.6402 11.9944 12.5249 12.1439 12.4575 12.3185C12.3901 12.4931 12.3738 12.6849 12.4105 12.8694C12.4472 13.0538 12.5354 13.2226 12.6637 13.354L13.5637 14.3014C13.6466 14.3923 13.7459 14.4649 13.8558 14.5149C13.9658 14.5649 14.0841 14.5913 14.2038 14.5926C14.3235 14.5939 14.4423 14.57 14.5532 14.5224C14.664 14.4747 14.7647 14.4043 14.8494 14.3152C14.9341 14.226 15.001 14.12 15.0463 14.0033C15.0915 13.8866 15.1142 13.7616 15.113 13.6356C15.1118 13.5095 15.0867 13.385 15.0392 13.2693C14.9917 13.1536 14.9227 13.0491 14.8363 12.9618L13.9363 12.0144C13.8525 11.9236 13.7522 11.8515 13.6414 11.8022C13.5305 11.753 13.4115 11.7276 13.2912 11.7276ZM18.6824 11.7276C18.4486 11.7349 18.2267 11.8378 18.0637 12.0144L17.1637 12.9618C17.0773 13.0491 17.0083 13.1536 16.9608 13.2693C16.9133 13.385 16.8882 13.5095 16.887 13.6356C16.8858 13.7616 16.9085 13.8866 16.9537 14.0033C16.999 14.12 17.0659 14.226 17.1506 14.3152C17.2353 14.4043 17.336 14.4747 17.4468 14.5224C17.5577 14.57 17.6765 14.5939 17.7962 14.5926C17.9159 14.5913 18.0342 14.5649 18.1441 14.5149C18.2541 14.4649 18.3534 14.3923 18.4363 14.3014L19.3363 13.354C19.4664 13.221 19.5552 13.0496 19.5912 12.8625C19.6271 12.6754 19.6086 12.4812 19.5379 12.3054C19.4672 12.1296 19.3477 11.9803 19.195 11.8772C19.0424 11.7741 18.8637 11.722 18.6824 11.7276ZM11.5 14.5789C10.7839 14.5789 10.0972 14.8784 9.59081 15.4114C9.08446 15.9444 8.8 16.6673 8.8 17.4211C8.8 18.1748 9.08446 18.8977 9.59081 19.4307C10.0972 19.9637 10.7839 20.2632 11.5 20.2632C12.2161 20.2632 12.9028 19.9637 13.4092 19.4307C13.9155 18.8977 14.2 18.1748 14.2 17.4211C14.2 16.6673 13.9155 15.9444 13.4092 15.4114C12.9028 14.8784 12.2161 14.5789 11.5 14.5789ZM20.5 14.5789C19.7839 14.5789 19.0972 14.8784 18.5908 15.4114C18.0845 15.9444 17.8 16.6673 17.8 17.4211C17.8 18.1748 18.0845 18.8977 18.5908 19.4307C19.0972 19.9637 19.7839 20.2632 20.5 20.2632C21.2161 20.2632 21.9028 19.9637 22.4092 19.4307C22.9155 18.8977 23.2 18.1748 23.2 17.4211C23.2 16.6673 22.9155 15.9444 22.4092 15.4114C21.9028 14.8784 21.2161 14.5789 20.5 14.5789ZM16 18.3684L14.2 21.2105H17.8L16 18.3684Z" fill="white"/>
</svg>
