<svg width="32" height="32" viewBox="0 0 32 32" fill="none" xmlns="http://www.w3.org/2000/svg">
<rect width="32" height="32" rx="8" fill="#080911"/>
<g clip-path="url(#clip0_0_128)">
<path d="M10.9456 10.9514C11.609 10.2879 12.3966 9.76164 13.2634 9.40257C14.1302 9.04351 15.0592 8.8587 15.9974 8.8587C16.9357 8.8587 17.8647 9.04351 18.7315 9.40257C19.5983 9.76164 20.3859 10.2879 21.0493 10.9514L23.0676 8.93303C22.1389 8.00361 21.0362 7.26631 19.8224 6.76327C18.6087 6.26023 17.3077 6.00131 15.9938 6.00131C14.6799 6.00131 13.3789 6.26023 12.1651 6.76327C10.9514 7.26631 9.84861 8.00361 8.91992 8.93303L10.9456 10.9514Z" fill="#ED6516"/>
<path d="M23.656 9.56882L21.6239 11.6046C22.5145 12.7434 23.0388 14.1256 23.1278 15.5685C23.2167 17.0115 22.866 18.4476 22.122 19.6872L18.444 16.0083L16.4404 11.2963H16.4303V17.6596L20.4 21.6294C19.1429 22.6131 17.5926 23.1475 15.9963 23.1475C14.4001 23.1475 12.8498 22.6131 11.5927 21.6294L15.5651 17.6596V11.3202L13.5514 16.0083L9.87248 19.6872C9.12835 18.4476 8.77769 17.0114 8.8668 15.5684C8.9559 14.1253 9.48059 12.7432 10.3716 11.6046L8.33945 9.56882C7.11591 11.027 6.33398 12.8042 6.08554 14.6914C5.8371 16.5787 6.13248 18.4976 6.93696 20.2228C7.74145 21.948 9.02161 23.4077 10.627 24.4305C12.2325 25.4533 14.0965 25.9966 16 25.9966C17.9035 25.9966 19.7675 25.4533 21.373 24.4305C22.9784 23.4077 24.2586 21.948 25.063 20.2228C25.8675 18.4976 26.1629 16.5787 25.9145 14.6914C25.666 12.8042 24.8841 11.027 23.6606 9.56882H23.656Z" fill="white"/>
</g>
<defs>
<clipPath id="clip0_0_128">
<rect width="20" height="20" fill="white" transform="translate(6 6)"/>
</clipPath>
</defs>
</svg>
