<svg width="32" height="32" viewBox="0 0 32 32" fill="none" xmlns="http://www.w3.org/2000/svg">
<rect width="32" height="32" rx="8" fill="#107C10"/>
<path d="M10.0765 22.7748C11.6583 24.1608 13.7327 25 16 25C18.2695 25 20.3418 24.1608 21.9265 22.7748C23.3343 21.3408 18.6895 16.243 16 14.212C13.3135 16.243 8.66575 21.3408 10.0765 22.7748ZM18.4465 11.9702C20.3215 14.191 24.0595 19.705 23.0035 21.6542C24.2515 20.11 25 18.1457 25 16.003C25 13.498 23.9763 11.2315 22.3225 9.601C22.3225 9.601 22.3022 9.5845 22.261 9.5695C22.2137 9.553 22.147 9.53575 22.0502 9.53575C21.6062 9.53575 20.5615 9.86125 18.4465 11.9702ZM9.7405 9.5695C9.69775 9.5845 9.679 9.60025 9.676 9.601C8.02375 11.2315 7 13.498 7 16.003C7 18.1435 7.7485 20.1078 8.99575 21.6528C7.945 19.699 11.68 14.1895 13.5558 11.9702C11.4408 9.8605 10.3937 9.5365 9.95125 9.5365C9.853 9.5365 9.784 9.55225 9.7405 9.571V9.5695ZM16 9.66325C16 9.66325 13.7913 8.371 12.0663 8.3095C11.389 8.28475 10.9758 8.53075 10.9255 8.56375C12.5343 7.4845 14.2443 7 15.988 7H16C17.7505 7 19.4538 7.4845 21.0745 8.56375C21.0235 8.52925 20.6133 8.28475 19.9345 8.3095C18.2095 8.371 16 9.65875 16 9.65875V9.66325Z" fill="white"/>
</svg>
