<svg width="32" height="32" viewBox="0 0 32 32" fill="none" xmlns="http://www.w3.org/2000/svg">
<rect width="32" height="32" rx="8" fill="#9517F8"/>
<path d="M8.22124 6C6.99396 6 6 6.99396 6 8.22124V23.777C6 25.0043 6.99396 26 8.22124 26H23.777C25.0052 26 26 25.0051 26 23.7788V8.22124C26 6.99396 25.006 6 23.7788 6H8.22124ZM11.4545 7.81818H13.2727H18.5746H20.7816L20.3786 9.88849H23.2212L22.6655 13.223L23.2035 21.0391L17.8182 20.6023V21.8345V23.3331L16.348 23.619L13.6207 24.1499L11.4545 24.5689V22.3636V21.3089L8.77876 22.1115L9.33452 13.777L8.77876 9.88849H11.4545V9.63636V7.81818ZM13.2727 9.63636V22.3636L16 21.8345V16.9091H17.8182V14.1818H16V12.3636H18.0455L18.5746 9.63636H13.2727Z" fill="white"/>
</svg>
