<svg width="32" height="32" viewBox="0 0 32 32" fill="none" xmlns="http://www.w3.org/2000/svg">
<rect width="32" height="32" rx="8" fill="#2CB4D2"/>
<path fill-rule="evenodd" clip-rule="evenodd" d="M25 16C25 20.9706 20.9706 25 16 25C11.0294 25 7 20.9706 7 16C7 11.0294 11.0294 7 16 7C20.9706 7 25 11.0294 25 16ZM14.9376 16.2943C15.1392 17.6097 14.5029 18.7985 13.5163 18.9497C12.5298 19.1009 11.5666 18.1572 11.365 16.8418C11.1634 15.5265 11.7997 14.3376 12.7863 14.1864C13.7728 14.0352 14.736 14.9789 14.9376 16.2943ZM19.4706 18.0371C20.4571 17.8859 21.0935 16.6971 20.8919 15.3817C20.6902 14.0663 19.7271 13.1226 18.7405 13.2738C17.754 13.425 17.1177 14.6139 17.3193 15.9292C17.5209 17.2446 18.4841 18.1884 19.4706 18.0371Z" fill="white"/>
</svg>
