<svg width="32" height="32" viewBox="0 0 32 32" fill="none" xmlns="http://www.w3.org/2000/svg">
<rect width="32" height="32" rx="8" fill="#003791"/>
<g clip-path="url(#clip0_0_34)">
<path d="M13.487 8.16333V22.7858L16.7495 23.8367V11.5733C16.7495 10.9983 17.0028 10.6142 17.4112 10.7475C17.9412 10.8975 18.0445 11.4258 18.0445 12.0017V16.8975C20.0787 17.8917 21.6795 16.8958 21.6795 14.2708C21.6795 11.5733 20.7412 10.375 17.9812 9.415C16.892 9.04166 14.8745 8.42666 13.4895 8.16333H13.487ZM17.367 21.6975L22.6137 19.8017C23.2095 19.5867 23.302 19.2808 22.8187 19.12C22.3303 18.96 21.4545 19.0042 20.8545 19.2225L17.3503 20.4725V18.4833L17.5503 18.4125C17.5503 18.4125 18.5512 18.0625 19.9778 17.9C21.3912 17.75 23.132 17.925 24.5087 18.4508C26.0487 18.9517 26.2087 19.6775 25.822 20.1775C25.4345 20.6775 24.4703 21.0408 24.4703 21.0408L17.3503 23.63V21.7167L17.367 21.6975ZM7.50618 21.5C5.92285 21.0458 5.66118 20.11 6.37951 19.5667C7.04701 19.0783 8.17951 18.69 8.17951 18.69L12.8587 17.0125V18.94L9.50451 20.1667C8.91701 20.3925 8.81701 20.6933 9.30535 20.855C9.79368 21.0175 10.6695 20.98 11.2578 20.755L12.8728 20.1667V21.895C12.7728 21.92 12.6595 21.9317 12.5478 21.9558C10.932 22.2317 9.21785 22.1192 7.51618 21.5567L7.50618 21.5Z" fill="white"/>
</g>
<defs>
<clipPath id="clip0_0_34">
<rect width="20" height="20" fill="white" transform="translate(6 6)"/>
</clipPath>
</defs>
</svg>
