<svg width="32" height="32" viewBox="0 0 32 32" fill="none" xmlns="http://www.w3.org/2000/svg">
<rect width="32" height="32" rx="8" fill="#730E33"/>
<path d="M16 5.3335V26.5L8 22.5L6.375 9.6665L6.75 9L8.125 8H11.5L16 5.3335Z" fill="#F57F17"/>
<path d="M16 16.5V26.5L8 22.5L10.5 16.5H16Z" fill="#827717"/>
<path d="M16 5.3335V26.5L24 22.5L25.625 9.6665L25.25 9L23.875 8H20.5L16 5.3335Z" fill="#F9A825"/>
<path d="M16 16.5V26.5L24 22.5L21.5 16.5H16Z" fill="#603813"/>
<path d="M8.69917 21.07L7.26367 9.09999L8.22017 8.24999H11.5687L16.0002 5.62399L20.4317 8.24999H23.7802L24.7367 9.09999L23.3012 21.07L16.0002 24.7205L8.69917 21.07Z" fill="#D81B60"/>
<path d="M14.7505 11L11.584 13.5835L11.0005 12.8335L9.33398 13.917L11.5005 19.6665C11.5005 19.6665 13.438 18.8125 15.2505 18.833C16.503 18.8475 18.584 19.2495 18.584 19.2495L20.366 18.7615L14.7505 11Z" fill="#880E4F"/>
<path d="M19.0859 14.008H18.5859L20.4999 12H20.9999L19.0859 14.008Z" fill="#F57F17"/>
<path d="M12.914 14.008H13.414L11.5 12H11L12.914 14.008Z" fill="#FDD835"/>
<path d="M20.9994 12L19.1474 13.9425L17.0409 10H15.9994H14.9579L12.8519 13.9425L10.9994 12L10.4004 12.575L11.6344 18.762C12.7429 18.198 13.7854 17.495 15.9994 17.5C18.2134 17.495 19.2559 18.198 20.3644 18.762L21.5984 12.575L20.9994 12Z" fill="#FFB300"/>
<path d="M15.9994 10H14.9579L12.8519 13.9425L10.9994 12L10.4004 12.575L11.6344 18.762C12.7429 18.198 13.7854 17.495 15.9994 17.5V10Z" fill="#FF6D00"/>
<path d="M23.6848 8.49999H20.4998H20.3628L20.2448 8.42999L15.9998 5.91449L11.7548 8.42999L11.6368 8.49999H11.4998H8.31484L7.52734 9.19999L8.93084 20.9065L15.9998 24.441L23.0683 20.9065L24.4723 9.19999L23.6848 8.49999ZM22.1398 20.253L15.9998 22.823L10.3598 20.253L9.08234 9.59999L9.19484 9.49999H11.4998H11.9108L12.2643 9.29049L15.9998 7.07699L19.7353 9.29049L20.0888 9.49999H20.4998H23.3043L23.4168 9.59999L22.1398 20.253Z" fill="#880E4F"/>
<path d="M15.9998 5.98901L11.6562 8.48901L11.8932 9.50001L15.9998 7.07701V5.98901Z" fill="#C2185B"/>
<path d="M7.81445 8.48901H11.6305L11.894 9.50001H9.20745L7.81445 8.48901Z" fill="#EC407A"/>
<path d="M16 5.98901L20.3435 8.48901L20.1065 9.50001L16 7.07701V5.98901Z" fill="#EC407A"/>
<path d="M23.685 8.49999H20.5H20.363L20.245 8.42999L16 5.91449V7.07699L19.7355 9.29049L20.089 9.49999H20.5H23.3045L23.4175 9.59999L22.14 20.253L16 22.823V24.441L23.0685 20.9065L24.4725 9.19999L23.685 8.49999Z" fill="#F06292"/>
<path d="M23.7429 8.48901H20.3709L20.1074 9.50001H23.2939L23.7429 8.48901Z" fill="#EC407A"/>
<path d="M22.14 20.253L16 22.823V24.441L23.0685 20.9065L22.14 20.253Z" fill="#C2185B"/>
<path d="M16 6.4955L19.99 8.86L20.226 9H20.5H23.495L23.945 9.4L22.6045 20.58L16 23.882L9.3955 20.58L8.055 9.4L8.505 9H11.5H11.774L12.01 8.8605L16 6.4955ZM16 5.3335L11.5 8H8.125L7 9L8.467 21.2335L16 25L23.533 21.2335L25 9L23.875 8H20.5L16 5.3335Z" fill="#FFCA28"/>
</svg>
