<svg width="16" height="16" viewBox="0 0 16 16" fill="none" xmlns="http://www.w3.org/2000/svg">
<path fill-rule="evenodd" clip-rule="evenodd" d="M3.71339 11.8306L4.26944 11.9542C4.79996 12.0721 5.31638 11.7487 5.42289 11.2318C5.52941 10.7149 5.18569 10.2003 4.65518 10.0823L1.92151 9.47474C1.43204 9.36596 0.946957 9.6331 0.795235 10.0951L0.0466072 12.3745C-0.117842 12.8752 0.166741 13.4224 0.682253 13.5967C1.19776 13.7709 1.74898 13.5063 1.91343 13.0056L1.9955 12.7558C3.14132 14.2519 4.67846 15.1693 5.92626 15.5912C7.4775 16.1156 9.76159 16.2743 11.9646 15.2167C14.1745 14.1557 15.4284 12.2436 15.9206 10.7452C16.085 10.2444 15.8005 9.69728 15.2849 9.52296C14.7694 9.34865 14.2182 9.61334 14.0538 10.1141C13.6864 11.2326 12.7251 12.6916 11.0657 13.4882C9.39957 14.2881 7.66478 14.1643 6.52175 13.7779C5.64597 13.4819 4.56009 12.8438 3.71339 11.8306ZM11.3448 5.91761C10.8142 5.79969 10.4705 5.28507 10.577 4.76817C10.6836 4.25127 11.2 3.92784 11.7305 4.04576L12.2865 4.16936C11.4399 3.15615 10.354 2.51816 9.47816 2.22206C8.33513 1.83563 6.60044 1.71192 4.93428 2.5118C3.27491 3.30842 2.31358 4.76744 1.94621 5.88596C1.78176 6.38668 1.23055 6.65128 0.715039 6.47702C0.199527 6.30274 -0.0850563 5.75554 0.0793933 5.25483C0.571534 3.75638 1.8255 1.84424 4.03534 0.783347C6.23842 -0.27429 8.52241 -0.11564 10.0737 0.408814C11.3215 0.830665 12.8587 1.7481 14.0044 3.24424L14.0865 2.99436C14.251 2.49365 14.8022 2.22902 15.3177 2.4033C15.8332 2.57759 16.1178 3.12478 15.9534 3.6255L15.2047 5.9049C15.053 6.36687 14.5679 6.63406 14.0784 6.52526L11.3448 5.91761Z" fill="#AFB4D4"/>
</svg>
