<svg width="12" height="14" viewBox="0 0 12 14" fill="none" xmlns="http://www.w3.org/2000/svg">
<path d="M11.5745 2.59042C10.5845 2.48629 9.59451 2.40818 8.59838 2.3496V2.3431L8.46311 1.49698C8.37088 0.898187 8.2356 0 6.79676 0H5.18574C3.75303 0 3.61775 0.859135 3.51937 1.49047L3.39024 2.32357C2.8184 2.36262 2.24655 2.40167 1.6747 2.46025L0.420324 2.59042C0.16207 2.61646 -0.0223971 2.85728 0.00219855 3.12413C0.0267942 3.39098 0.248155 3.58624 0.506409 3.5602L1.76079 3.43003C4.98283 3.09159 8.22945 3.22176 11.4884 3.56671C11.5068 3.56671 11.5191 3.56671 11.5376 3.56671C11.7712 3.56671 11.9741 3.37796 11.9987 3.12413C12.0172 2.85728 11.8327 2.61646 11.5745 2.59042Z" fill="white"/>
<path d="M10.443 4.48443C10.2955 4.32171 10.0926 4.23059 9.88349 4.23059H2.11131C1.90224 4.23059 1.69318 4.32171 1.55176 4.48443C1.41033 4.64714 1.33039 4.86843 1.34269 5.09623L1.72392 11.7741C1.79156 12.7634 1.87765 14 4.02361 14H7.97118C10.1171 14 10.2033 12.7699 10.2709 11.7741L10.6521 5.10274C10.6644 4.86843 10.5845 4.64714 10.443 4.48443ZM7.0181 10.7392H4.97052C4.71844 10.7392 4.50938 10.5179 4.50938 10.251C4.50938 9.98419 4.71844 9.7629 4.97052 9.7629H7.0181C7.27021 9.7629 7.47927 9.98419 7.47927 10.251C7.47927 10.5179 7.27021 10.7392 7.0181 10.7392ZM7.53461 8.13575H4.46019C4.20808 8.13575 3.99902 7.91446 3.99902 7.64761C3.99902 7.38075 4.20808 7.15946 4.46019 7.15946H7.53461C7.78671 7.15946 7.99578 7.38075 7.99578 7.64761C7.99578 7.91446 7.78671 8.13575 7.53461 8.13575Z" fill="white"/>
</svg>
