<svg width="141" height="40" viewBox="0 0 141 40" fill="none" xmlns="http://www.w3.org/2000/svg">
<g clip-path="url(#clip0_0_304)">
<path d="M42.5508 29.4219V13.2109C42.5508 12.8724 42.6723 12.5859 42.9155 12.3516C43.1586 12.1172 43.4495 12 43.7881 12H58.8058C59.1445 12 59.431 12.1215 59.6655 12.3646C59.9086 12.6076 60.0302 12.8984 60.0302 13.237V14.4609C60.0302 14.7995 59.9086 15.0903 59.6655 15.3333C59.431 15.5677 59.1445 15.6849 58.8058 15.6849H47.4612V20.2682H56.6958C57.0344 20.2682 57.321 20.3898 57.5554 20.6328C57.7986 20.8759 57.9201 21.1623 57.9201 21.4922V22.7292C57.9201 23.0677 57.7986 23.3585 57.5554 23.6016C57.321 23.8359 57.0344 23.9531 56.6958 23.9531H47.4612V29.4219C47.4612 29.7778 47.3396 30.0773 47.0965 30.3203C46.862 30.5547 46.5755 30.6719 46.2368 30.6719H43.7881C43.4495 30.6719 43.1586 30.5547 42.9155 30.3203C42.6723 30.0773 42.5508 29.7778 42.5508 29.4219Z" fill="#AFB4D4"/>
<path d="M81.0268 30.112C81.0268 30.4852 80.8053 30.6719 80.3625 30.6719H77.2365C76.9066 30.6719 76.5419 30.5547 76.1424 30.3203C75.7517 30.0773 75.4521 29.7865 75.2437 29.4479L73.0295 25.9844C72.1178 24.5608 71.015 23.849 69.7212 23.849H66.5431V29.4479C66.5431 29.7865 66.4215 30.0773 66.1784 30.3203C65.944 30.5547 65.6574 30.6719 65.3188 30.6719H62.8701C62.5315 30.6719 62.2406 30.5547 61.9974 30.3203C61.7543 30.0773 61.6327 29.7865 61.6327 29.4479V13.237C61.6327 12.8984 61.75 12.6076 61.9844 12.3646C62.2189 12.1215 62.5054 12 62.8441 12H73.5896C75.578 12 77.2061 12.5339 78.4739 13.6016C79.7503 14.6693 80.3885 16.1102 80.3885 17.9245C80.3885 20.4505 78.7518 22.0347 75.4782 22.6771C75.9992 22.8681 76.4811 23.1979 76.9239 23.6667C77.3668 24.1267 77.8748 24.7995 78.4478 25.6849L80.8184 29.4479C80.9573 29.691 81.0268 29.9123 81.0268 30.112ZM66.5431 20.1641H72.0917C72.9861 20.1641 73.7719 19.9861 74.4492 19.6302C75.1352 19.2743 75.4782 18.7057 75.4782 17.9245C75.4782 17.1432 75.1352 16.5747 74.4492 16.2188C73.7719 15.8628 72.9861 15.6849 72.0917 15.6849H66.5431V20.1641Z" fill="#AFB4D4"/>
<path d="M82.6684 29.474V13.237C82.6684 12.8984 82.79 12.6076 83.0331 12.3646C83.2763 12.1215 83.5671 12 83.9058 12H86.3284C86.6844 12 86.9797 12.1215 87.2141 12.3646C87.4572 12.6076 87.5788 12.8984 87.5788 13.237V29.4479C87.5788 29.7865 87.4529 30.0773 87.2011 30.3203C86.958 30.5547 86.6671 30.6719 86.3284 30.6719H83.9058C83.5671 30.6719 83.2763 30.559 83.0331 30.3333C82.79 30.099 82.6684 29.8125 82.6684 29.474Z" fill="#AFB4D4"/>
<path d="M90.7834 29.4219V13.263C90.7834 12.9071 90.9007 12.6076 91.1351 12.3646C91.3696 12.1215 91.6561 12 91.9948 12H97.2959C97.6345 12 97.9558 12.1215 98.2597 12.3646C98.5636 12.6076 98.7677 12.8984 98.8719 13.237L102.714 24.3568L106.557 13.237C106.661 12.8984 106.865 12.6076 107.169 12.3646C107.473 12.1215 107.794 12 108.133 12H113.434C113.772 12 114.055 12.1215 114.28 12.3646C114.515 12.6076 114.632 12.9071 114.632 13.263V29.4219C114.632 29.7778 114.51 30.0773 114.267 30.3203C114.033 30.5547 113.746 30.6719 113.408 30.6719H111.063C110.725 30.6719 110.434 30.5547 110.19 30.3203C109.956 30.0773 109.839 29.7778 109.839 29.4219V16.7005L105.241 29.5C105.119 29.8212 104.907 30.099 104.603 30.3333C104.299 30.559 103.978 30.6719 103.639 30.6719H101.776C101.438 30.6719 101.117 30.559 100.813 30.3333C100.517 30.099 100.305 29.8212 100.174 29.5L95.5896 16.7005V29.4219C95.5896 29.7778 95.4681 30.0773 95.2249 30.3203C94.9905 30.5547 94.7039 30.6719 94.3653 30.6719H92.0208C91.6822 30.6719 91.3913 30.5547 91.1481 30.3203C90.905 30.0773 90.7834 29.7778 90.7834 29.4219Z" fill="#AFB4D4"/>
<path d="M116.638 14.4609V13.237C116.638 12.8811 116.756 12.5859 116.99 12.3516C117.233 12.1172 117.524 12 117.863 12H133.076C133.414 12 133.701 12.1172 133.935 12.3516C134.178 12.5859 134.3 12.8811 134.3 13.237V14.6953C134.3 15.0512 134.222 15.3941 134.066 15.724C133.918 16.0538 133.779 16.2882 133.649 16.4271L133.076 17.013L122.825 26.987H133.206C133.562 26.987 133.853 27.1042 134.079 27.3385C134.313 27.5729 134.43 27.8681 134.43 28.224V29.4479C134.43 29.8038 134.313 30.099 134.079 30.3333C133.853 30.559 133.562 30.6719 133.206 30.6719H118.084C117.745 30.6719 117.455 30.559 117.211 30.3333C116.977 30.099 116.86 29.8038 116.86 29.4479V28.0026C116.86 27.1693 117.268 26.3446 118.084 25.5286L128.009 15.6849H117.863C117.524 15.6849 117.233 15.572 116.99 15.3464C116.756 15.112 116.638 14.8168 116.638 14.4609Z" fill="#AFB4D4"/>
<path d="M136.424 29.474V13.237C136.424 12.8984 136.545 12.6076 136.788 12.3646C137.031 12.1215 137.322 12 137.661 12H140.084C140.44 12 140.735 12.1215 140.969 12.3646C141.212 12.6076 141.334 12.8984 141.334 13.237V29.4479C141.334 29.7865 141.208 30.0773 140.956 30.3203C140.713 30.5547 140.422 30.6719 140.084 30.6719H137.661C137.322 30.6719 137.031 30.559 136.788 30.3333C136.545 30.099 136.424 29.8125 136.424 29.474Z" fill="#AFB4D4"/>
<path d="M15.0038 22.8952C5.18824 19.7005 2.42317 9.98334 2.26758 5.52411C2.31203 5.61285 2.44095 5.85689 2.60099 6.12311C4.20135 9.2113 8.15781 12.4237 9.93599 13.6439L8.60236 14.1764C13.8358 17.3045 17.8045 17.97 21.3386 17.97H31.6743C31.6743 22.3627 29.9406 24.4925 27.34 24.4925H20.8051V40C13.2701 40 10.8695 33.7437 10.8695 30.6156V22.6289L15.0038 22.8952Z" fill="#AFB4D4"/>
<path d="M19.7378 5.19135C10.6691 5.19135 2.80064 1.73045 0 0C0.0444546 0.110926 0.200046 0.439268 0.466773 0.865225C3.98758 7.84027 10.9581 11.7582 14.0032 12.8453L12.6696 13.4443C16.4571 15.0948 19.8045 15.2856 21.0048 15.1747V12.0466H31.3405C35.1814 12.0466 35.9638 7.47643 35.8748 5.19135H19.7378Z" fill="#AFB4D4"/>
</g>
<defs>
<clipPath id="clip0_0_304">
<rect width="141" height="40" fill="white"/>
</clipPath>
</defs>
</svg>
