<svg width="141" height="40" viewBox="0 0 141 40" fill="none" xmlns="http://www.w3.org/2000/svg">
<g clip-path="url(#clip0_0_469)">
<path d="M42.5498 29.4219V13.2109C42.5498 12.8724 42.6714 12.5859 42.9145 12.3516C43.1576 12.1172 43.4485 12 43.7872 12H58.8048C59.1435 12 59.43 12.1215 59.6645 12.3646C59.9076 12.6076 60.0292 12.8984 60.0292 13.237V14.4609C60.0292 14.7995 59.9076 15.0903 59.6645 15.3333C59.43 15.5677 59.1435 15.6849 58.8048 15.6849H47.4602V20.2682H56.6948C57.0335 20.2682 57.32 20.3898 57.5545 20.6328C57.7976 20.8759 57.9192 21.1623 57.9192 21.4922V22.7292C57.9192 23.0677 57.7976 23.3585 57.5545 23.6016C57.32 23.8359 57.0335 23.9531 56.6948 23.9531H47.4602V29.4219C47.4602 29.7778 47.3386 30.0773 47.0955 30.3203C46.861 30.5547 46.5745 30.6719 46.2358 30.6719H43.7872C43.4485 30.6719 43.1576 30.5547 42.9145 30.3203C42.6714 30.0773 42.5498 29.7778 42.5498 29.4219Z" fill="white"/>
<path d="M81.0258 30.112C81.0258 30.4852 80.8044 30.6719 80.3615 30.6719H77.2356C76.9056 30.6719 76.5409 30.5547 76.1415 30.3203C75.7507 30.0773 75.4511 29.7865 75.2428 29.4479L73.0285 25.9844C72.1168 24.5608 71.014 23.849 69.7202 23.849H66.5421V29.4479C66.5421 29.7865 66.4206 30.0773 66.1774 30.3203C65.943 30.5547 65.6564 30.6719 65.3178 30.6719H62.8691C62.5305 30.6719 62.2396 30.5547 61.9965 30.3203C61.7533 30.0773 61.6318 29.7865 61.6318 29.4479V13.237C61.6318 12.8984 61.749 12.6076 61.9834 12.3646C62.2179 12.1215 62.5044 12 62.8431 12H73.5886C75.5771 12 77.2052 12.5339 78.4729 13.6016C79.7494 14.6693 80.3876 16.1102 80.3876 17.9245C80.3876 20.4505 78.7508 22.0347 75.4772 22.6771C75.9982 22.8681 76.4801 23.1979 76.923 23.6667C77.3658 24.1267 77.8738 24.7995 78.4469 25.6849L80.8174 29.4479C80.9563 29.691 81.0258 29.9123 81.0258 30.112ZM66.5421 20.1641H72.0907C72.9851 20.1641 73.7709 19.9861 74.4482 19.6302C75.1342 19.2743 75.4772 18.7057 75.4772 17.9245C75.4772 17.1432 75.1342 16.5747 74.4482 16.2188C73.7709 15.8628 72.9851 15.6849 72.0907 15.6849H66.5421V20.1641Z" fill="white"/>
<path d="M82.6674 29.474V13.237C82.6674 12.8984 82.789 12.6076 83.0321 12.3646C83.2753 12.1215 83.5662 12 83.9048 12H86.3274C86.6835 12 86.9787 12.1215 87.2131 12.3646C87.4563 12.6076 87.5778 12.8984 87.5778 13.237V29.4479C87.5778 29.7865 87.4519 30.0773 87.2001 30.3203C86.957 30.5547 86.6661 30.6719 86.3274 30.6719H83.9048C83.5662 30.6719 83.2753 30.559 83.0321 30.3333C82.789 30.099 82.6674 29.8125 82.6674 29.474Z" fill="white"/>
<path d="M90.7825 29.4219V13.263C90.7825 12.9071 90.8997 12.6076 91.1341 12.3646C91.3686 12.1215 91.6551 12 91.9938 12H97.2949C97.6335 12 97.9548 12.1215 98.2587 12.3646C98.5627 12.6076 98.7667 12.8984 98.8709 13.237L102.713 24.3568L106.556 13.237C106.66 12.8984 106.864 12.6076 107.168 12.3646C107.472 12.1215 107.793 12 108.132 12H113.433C113.771 12 114.054 12.1215 114.279 12.3646C114.514 12.6076 114.631 12.9071 114.631 13.263V29.4219C114.631 29.7778 114.509 30.0773 114.266 30.3203C114.032 30.5547 113.745 30.6719 113.407 30.6719H111.062C110.724 30.6719 110.433 30.5547 110.19 30.3203C109.955 30.0773 109.838 29.7778 109.838 29.4219V16.7005L105.24 29.5C105.119 29.8212 104.906 30.099 104.602 30.3333C104.298 30.559 103.977 30.6719 103.638 30.6719H101.775C101.437 30.6719 101.116 30.559 100.812 30.3333C100.516 30.099 100.304 29.8212 100.173 29.5L95.5886 16.7005V29.4219C95.5886 29.7778 95.4671 30.0773 95.2239 30.3203C94.9895 30.5547 94.703 30.6719 94.3643 30.6719H92.0198C91.6812 30.6719 91.3903 30.5547 91.1472 30.3203C90.904 30.0773 90.7825 29.7778 90.7825 29.4219Z" fill="white"/>
<path d="M116.637 14.4609V13.237C116.637 12.8811 116.755 12.5859 116.989 12.3516C117.232 12.1172 117.523 12 117.862 12H133.075C133.413 12 133.7 12.1172 133.934 12.3516C134.178 12.5859 134.299 12.8811 134.299 13.237V14.6953C134.299 15.0512 134.221 15.3941 134.065 15.724C133.917 16.0538 133.778 16.2882 133.648 16.4271L133.075 17.013L122.824 26.987H133.205C133.561 26.987 133.852 27.1042 134.078 27.3385C134.312 27.5729 134.429 27.8681 134.429 28.224V29.4479C134.429 29.8038 134.312 30.099 134.078 30.3333C133.852 30.559 133.561 30.6719 133.205 30.6719H118.083C117.744 30.6719 117.454 30.559 117.21 30.3333C116.976 30.099 116.859 29.8038 116.859 29.4479V28.0026C116.859 27.1693 117.267 26.3446 118.083 25.5286L128.008 15.6849H117.862C117.523 15.6849 117.232 15.572 116.989 15.3464C116.755 15.112 116.637 14.8168 116.637 14.4609Z" fill="white"/>
<path d="M136.423 29.474V13.237C136.423 12.8984 136.544 12.6076 136.787 12.3646C137.03 12.1215 137.321 12 137.66 12H140.083C140.439 12 140.734 12.1215 140.968 12.3646C141.211 12.6076 141.333 12.8984 141.333 13.237V29.4479C141.333 29.7865 141.207 30.0773 140.955 30.3203C140.712 30.5547 140.421 30.6719 140.083 30.6719H137.66C137.321 30.6719 137.03 30.559 136.787 30.3333C136.544 30.099 136.423 29.8125 136.423 29.474Z" fill="white"/>
<path d="M15.0038 22.8952C5.18824 19.7005 2.42317 9.98334 2.26758 5.52411C2.31203 5.61285 2.44095 5.85689 2.60099 6.12311C4.20135 9.2113 8.15781 12.4237 9.93599 13.6439L8.60236 14.1764C13.8358 17.3045 17.8045 17.97 21.3386 17.97H31.6743C31.6743 22.3627 29.9406 24.4925 27.34 24.4925H20.8051V40C13.2701 40 10.8695 33.7437 10.8695 30.6156V22.6289L15.0038 22.8952Z" fill="#178CF8"/>
<path d="M19.7378 5.19135C10.6691 5.19135 2.80064 1.73045 0 0C0.0444546 0.110926 0.200046 0.439268 0.466773 0.865225C3.98758 7.84027 10.9581 11.7582 14.0032 12.8453L12.6696 13.4443C16.4571 15.0948 19.8045 15.2856 21.0048 15.1747V12.0466H31.3405C35.1814 12.0466 35.9638 7.47643 35.8748 5.19135H19.7378Z" fill="white"/>
</g>
<defs>
<clipPath id="clip0_0_469">
<rect width="141" height="40" fill="white"/>
</clipPath>
</defs>
</svg>
