<svg width="48" height="48" viewBox="0 0 48 48" fill="none" xmlns="http://www.w3.org/2000/svg">
<rect width="48" height="48" rx="8" fill="#272A3F"/>
<path d="M34.6125 20.5294H32.865L27.615 14.3402C27.4587 14.1543 27.2319 14.0344 26.9835 14.0063C26.7351 13.9783 26.4851 14.0443 26.2875 14.1903C26.192 14.2556 26.1116 14.3389 26.0511 14.435C25.9907 14.531 25.9516 14.6378 25.9361 14.7488C25.9207 14.8598 25.9292 14.9727 25.9613 15.0804C25.9933 15.1881 26.0482 15.2885 26.1225 15.3753L30.525 20.5294H17.4225L21.9225 15.3824C22.0001 15.2992 22.0591 15.2019 22.0959 15.0964C22.1328 14.9909 22.1467 14.8793 22.1369 14.7685C22.1271 14.6577 22.0937 14.5499 22.0388 14.4517C21.9839 14.3536 21.9086 14.267 21.8175 14.1974C21.6246 14.0577 21.3831 13.9932 21.142 14.017C20.9009 14.0409 20.6785 14.1514 20.52 14.3259L15.0525 20.5294H13.3875C13.2092 20.5256 13.0319 20.5553 12.8657 20.6167C12.6994 20.6782 12.5476 20.7702 12.4187 20.8875C12.2899 21.0049 12.1866 21.1452 12.1147 21.3006C12.0429 21.4559 12.0039 21.6232 12 21.7929V22.6353C12.0059 22.9492 12.133 23.2501 12.3571 23.4805C12.5812 23.7109 12.8866 23.8548 13.215 23.8845L15.75 32.5009C15.8475 32.8507 16.2675 34 17.3625 34H30.66C31.0511 33.9565 31.4171 33.7941 31.7036 33.5369C31.99 33.2797 32.1816 32.9414 32.25 32.5723L34.74 23.8631C35.0721 23.8423 35.3844 23.7054 35.617 23.4788C35.8495 23.2522 35.9859 22.9518 36 22.6353V21.7929C35.9961 21.6232 35.9571 21.4559 35.8853 21.3006C35.8134 21.1452 35.7101 21.0049 35.5813 20.8875C35.4524 20.7702 35.3006 20.6782 35.1343 20.6167C34.9681 20.5553 34.7908 20.5256 34.6125 20.5294ZM21 29.7882C20.9783 30.0267 20.8634 30.2488 20.678 30.4106C20.4927 30.5724 20.2503 30.6622 19.9987 30.6622C19.7472 30.6622 19.5048 30.5724 19.3195 30.4106C19.1341 30.2488 19.0192 30.0267 18.9975 29.7882V26.4188C19.0192 26.1802 19.1341 25.9581 19.3195 25.7963C19.5048 25.6345 19.7472 25.5447 19.9987 25.5447C20.2503 25.5447 20.4927 25.6345 20.678 25.7963C20.8634 25.9581 20.9783 26.1802 21 26.4188V29.7882ZM24.9975 29.7882C24.9758 30.0267 24.8609 30.2488 24.6755 30.4106C24.4902 30.5724 24.2478 30.6622 23.9963 30.6622C23.7447 30.6622 23.5023 30.5724 23.317 30.4106C23.1316 30.2488 23.0167 30.0267 22.995 29.7882V26.4188C23.0167 26.1802 23.1316 25.9581 23.317 25.7963C23.5023 25.6345 23.7447 25.5447 23.9963 25.5447C24.2478 25.5447 24.4902 25.6345 24.6755 25.7963C24.8609 25.9581 24.9758 26.1802 24.9975 26.4188V29.7882ZM28.995 29.7882C28.9733 30.0267 28.8584 30.2488 28.673 30.4106C28.4877 30.5724 28.2453 30.6622 27.9938 30.6622C27.7422 30.6622 27.4998 30.5724 27.3145 30.4106C27.1291 30.2488 27.0142 30.0267 26.9925 29.7882V26.4188C27.0142 26.1802 27.1291 25.9581 27.3145 25.7963C27.4998 25.6345 27.7422 25.5447 27.9938 25.5447C28.2453 25.5447 28.4877 25.6345 28.673 25.7963C28.8584 25.9581 28.9733 26.1802 28.995 26.4188V29.7882Z" fill="white"/>
</svg>
