<svg width="33" height="416" viewBox="0 0 33 416" fill="none" xmlns="http://www.w3.org/2000/svg">
<rect x="1" y="48" width="32" height="32" rx="8" fill="#003791"/>
<g clip-path="url(#clip0_133_2)">
<path d="M14.487 56.1633V70.7858L17.7495 71.8367V59.5733C17.7495 58.9983 18.0028 58.6142 18.4112 58.7475C18.9412 58.8975 19.0445 59.4258 19.0445 60.0017V64.8975C21.0787 65.8917 22.6795 64.8958 22.6795 62.2708C22.6795 59.5733 21.7412 58.375 18.9812 57.415C17.892 57.0417 15.8745 56.4267 14.4895 56.1633H14.487ZM18.367 69.6975L23.6137 67.8017C24.2095 67.5867 24.302 67.2808 23.8187 67.12C23.3303 66.96 22.4545 67.0042 21.8545 67.2225L18.3503 68.4725V66.4833L18.5503 66.4125C18.5503 66.4125 19.5512 66.0625 20.9778 65.9C22.3912 65.75 24.132 65.925 25.5087 66.4508C27.0487 66.9517 27.2087 67.6775 26.822 68.1775C26.4345 68.6775 25.4703 69.0408 25.4703 69.0408L18.3503 71.63V69.7167L18.367 69.6975ZM8.50618 69.5C6.92285 69.0458 6.66118 68.11 7.37951 67.5667C8.04701 67.0783 9.17951 66.69 9.17951 66.69L13.8587 65.0125V66.94L10.5045 68.1667C9.91701 68.3925 9.81701 68.6933 10.3053 68.855C10.7937 69.0175 11.6695 68.98 12.2578 68.755L13.8728 68.1667V69.895C13.7728 69.92 13.6595 69.9317 13.5478 69.9558C11.932 70.2317 10.2178 70.1192 8.51618 69.5567L8.50618 69.5Z" fill="white"/>
</g>
<rect x="1" y="96" width="32" height="32" rx="8" fill="#107C10"/>
<path d="M11.0765 118.775C12.6583 120.161 14.7327 121 17 121C19.2695 121 21.3418 120.161 22.9265 118.775C24.3343 117.341 19.6895 112.243 17 110.212C14.3135 112.243 9.66575 117.341 11.0765 118.775ZM19.4465 107.97C21.3215 110.191 25.0595 115.705 24.0035 117.654C25.2515 116.11 26 114.146 26 112.003C26 109.498 24.9763 107.231 23.3225 105.601C23.3225 105.601 23.3022 105.585 23.261 105.57C23.2137 105.553 23.147 105.536 23.0502 105.536C22.6062 105.536 21.5615 105.861 19.4465 107.97ZM10.7405 105.57C10.6978 105.585 10.679 105.6 10.676 105.601C9.02375 107.231 8 109.498 8 112.003C8 114.143 8.7485 116.108 9.99575 117.653C8.945 115.699 12.68 110.189 14.5558 107.97C12.4408 105.86 11.3937 105.536 10.9512 105.536C10.853 105.536 10.784 105.552 10.7405 105.571V105.57ZM17 105.663C17 105.663 14.7913 104.371 13.0663 104.31C12.389 104.285 11.9758 104.531 11.9255 104.564C13.5343 103.485 15.2443 103 16.988 103H17C18.7505 103 20.4538 103.485 22.0745 104.564C22.0235 104.529 21.6133 104.285 20.9345 104.31C19.2095 104.371 17 105.659 17 105.659V105.663Z" fill="white"/>
<rect x="1" y="144" width="32" height="32" rx="8" fill="#9517F8"/>
<path d="M9.22124 150C7.99396 150 7 150.994 7 152.221V167.777C7 169.004 7.99396 170 9.22124 170H24.777C26.0052 170 27 169.005 27 167.779V152.221C27 150.994 26.006 150 24.7788 150H9.22124ZM12.4545 151.818H14.2727H19.5746H21.7816L21.3786 153.888H24.2212L23.6655 157.223L24.2035 165.039L18.8182 164.602V165.835V167.333L17.348 167.619L14.6207 168.15L12.4545 168.569V166.364V165.309L9.77876 166.112L10.3345 157.777L9.77876 153.888H12.4545V153.636V151.818ZM14.2727 153.636V166.364L17 165.835V160.909H18.8182V158.182H17V156.364H19.0455L19.5746 153.636H14.2727Z" fill="white"/>
<rect x="1" y="192" width="32" height="32" rx="8" fill="#2CB4D2"/>
<path fill-rule="evenodd" clip-rule="evenodd" d="M26 208C26 212.971 21.9706 217 17 217C12.0294 217 8 212.971 8 208C8 203.029 12.0294 199 17 199C21.9706 199 26 203.029 26 208ZM15.9376 208.294C16.1392 209.61 15.5029 210.799 14.5163 210.95C13.5298 211.101 12.5666 210.157 12.365 208.842C12.1634 207.526 12.7997 206.338 13.7863 206.186C14.7728 206.035 15.736 206.979 15.9376 208.294ZM20.4706 210.037C21.4571 209.886 22.0935 208.697 21.8919 207.382C21.6902 206.066 20.7271 205.123 19.7405 205.274C18.754 205.425 18.1177 206.614 18.3193 207.929C18.5209 209.245 19.4841 210.188 20.4706 210.037Z" fill="white"/>
<rect x="1" y="240" width="32" height="32" rx="8" fill="#178CF8"/>
<path d="M17 247C21.9812 247 26 251.23 26 256.474C26 257.579 25.8116 258.634 25.4832 259.619C24.9557 260.95 23.9421 262.131 22.0273 263.076C21.8822 263.147 21.7578 263.258 21.6669 263.397C21.5761 263.536 21.5221 263.698 21.5105 263.866L21.5035 263.984C21.5016 264.007 21.5004 264.03 21.5 264.053C21.5 264.588 21.1085 265 20.6 265H13.4C12.8944 265 12.5079 264.591 12.5035 264.06L12.507 264.003C12.5202 263.811 12.4779 263.62 12.3856 263.455C12.2933 263.289 12.1554 263.157 11.9902 263.076C9.98606 262.087 8.95971 260.841 8.45176 259.431C8.16258 258.5 8 257.508 8 256.474V256.47C8.00191 251.228 12.02 247 17 247ZM14.2912 251.728C14.1122 251.728 13.9372 251.784 13.7887 251.889C13.6402 251.994 13.5249 252.144 13.4575 252.319C13.3901 252.493 13.3738 252.685 13.4105 252.869C13.4472 253.054 13.5354 253.223 13.6637 253.354L14.5637 254.301C14.6466 254.392 14.7459 254.465 14.8558 254.515C14.9658 254.565 15.0841 254.591 15.2038 254.593C15.3235 254.594 15.4423 254.57 15.5532 254.522C15.664 254.475 15.7647 254.404 15.8494 254.315C15.9341 254.226 16.001 254.12 16.0463 254.003C16.0915 253.887 16.1142 253.762 16.113 253.636C16.1118 253.51 16.0867 253.385 16.0392 253.269C15.9917 253.154 15.9227 253.049 15.8363 252.962L14.9363 252.014C14.8525 251.924 14.7522 251.852 14.6414 251.802C14.5305 251.753 14.4115 251.728 14.2912 251.728ZM19.6824 251.728C19.4486 251.735 19.2267 251.838 19.0637 252.014L18.1637 252.962C18.0773 253.049 18.0083 253.154 17.9608 253.269C17.9133 253.385 17.8882 253.51 17.887 253.636C17.8858 253.762 17.9085 253.887 17.9537 254.003C17.999 254.12 18.0659 254.226 18.1506 254.315C18.2353 254.404 18.336 254.475 18.4468 254.522C18.5577 254.57 18.6765 254.594 18.7962 254.593C18.9159 254.591 19.0342 254.565 19.1441 254.515C19.2541 254.465 19.3534 254.392 19.4363 254.301L20.3363 253.354C20.4664 253.221 20.5552 253.05 20.5912 252.863C20.6271 252.675 20.6086 252.481 20.5379 252.305C20.4672 252.13 20.3477 251.98 20.195 251.877C20.0424 251.774 19.8637 251.722 19.6824 251.728ZM12.5 254.579C11.7839 254.579 11.0972 254.878 10.5908 255.411C10.0845 255.944 9.8 256.667 9.8 257.421C9.8 258.175 10.0845 258.898 10.5908 259.431C11.0972 259.964 11.7839 260.263 12.5 260.263C13.2161 260.263 13.9028 259.964 14.4092 259.431C14.9155 258.898 15.2 258.175 15.2 257.421C15.2 256.667 14.9155 255.944 14.4092 255.411C13.9028 254.878 13.2161 254.579 12.5 254.579ZM21.5 254.579C20.7839 254.579 20.0972 254.878 19.5908 255.411C19.0845 255.944 18.8 256.667 18.8 257.421C18.8 258.175 19.0845 258.898 19.5908 259.431C20.0972 259.964 20.7839 260.263 21.5 260.263C22.2161 260.263 22.9028 259.964 23.4092 259.431C23.9155 258.898 24.2 258.175 24.2 257.421C24.2 256.667 23.9155 255.944 23.4092 255.411C22.9028 254.878 22.2161 254.579 21.5 254.579ZM17 258.368L15.2 261.211H18.8L17 258.368Z" fill="white"/>
<rect x="1" y="288" width="32" height="32" rx="8" fill="#730E33"/>
<path d="M17 293.333V314.5L9 310.5L7.375 297.666L7.75 297L9.125 296H12.5L17 293.333Z" fill="#F57F17"/>
<path d="M17 304.5V314.5L9 310.5L11.5 304.5H17Z" fill="#827717"/>
<path d="M17 293.333V314.5L25 310.5L26.625 297.666L26.25 297L24.875 296H21.5L17 293.333Z" fill="#F9A825"/>
<path d="M17 304.5V314.5L25 310.5L22.5 304.5H17Z" fill="#603813"/>
<path d="M9.69917 309.07L8.26367 297.1L9.22017 296.25H12.5687L17.0002 293.624L21.4317 296.25H24.7802L25.7367 297.1L24.3012 309.07L17.0002 312.72L9.69917 309.07Z" fill="#D81B60"/>
<path d="M15.7505 299L12.584 301.583L12.0005 300.833L10.334 301.917L12.5005 307.667C12.5005 307.667 14.438 306.813 16.2505 306.833C17.503 306.848 19.584 307.25 19.584 307.25L21.366 306.762L15.7505 299Z" fill="#880E4F"/>
<path d="M20.0859 302.008H19.5859L21.4999 300H21.9999L20.0859 302.008Z" fill="#F57F17"/>
<path d="M13.914 302.008H14.414L12.5 300H12L13.914 302.008Z" fill="#FDD835"/>
<path d="M22.0004 300L20.1484 301.943L18.0419 298H17.0004H15.9589L13.8529 301.943L12.0004 300L11.4014 300.575L12.6354 306.762C13.7439 306.198 14.7864 305.495 17.0004 305.5C19.2144 305.495 20.2569 306.198 21.3654 306.762L22.5994 300.575L22.0004 300Z" fill="#FFB300"/>
<path d="M17.0004 298H15.9589L13.8529 301.943L12.0004 300L11.4014 300.575L12.6354 306.762C13.7439 306.198 14.7864 305.495 17.0004 305.5V298Z" fill="#FF6D00"/>
<path d="M24.6848 296.5H21.4998H21.3628L21.2448 296.43L16.9998 293.914L12.7548 296.43L12.6368 296.5H12.4998H9.31484L8.52734 297.2L9.93084 308.906L16.9998 312.441L24.0683 308.906L25.4723 297.2L24.6848 296.5ZM23.1398 308.253L16.9998 310.823L11.3598 308.253L10.0823 297.6L10.1948 297.5H12.4998H12.9108L13.2643 297.29L16.9998 295.077L20.7353 297.29L21.0888 297.5H21.4998H24.3043L24.4168 297.6L23.1398 308.253Z" fill="#880E4F"/>
<path d="M16.9998 293.989L12.6562 296.489L12.8932 297.5L16.9998 295.077V293.989Z" fill="#C2185B"/>
<path d="M8.81445 296.489H12.6305L12.894 297.5H10.2075L8.81445 296.489Z" fill="#EC407A"/>
<path d="M17 293.989L21.3435 296.489L21.1065 297.5L17 295.077V293.989Z" fill="#EC407A"/>
<path d="M24.685 296.5H21.5H21.363L21.245 296.43L17 293.914V295.077L20.7355 297.29L21.089 297.5H21.5H24.3045L24.4175 297.6L23.14 308.253L17 310.823V312.441L24.0685 308.906L25.4725 297.2L24.685 296.5Z" fill="#F06292"/>
<path d="M24.7419 296.489H21.3699L21.1064 297.5H24.2929L24.7419 296.489Z" fill="#EC407A"/>
<path d="M23.14 308.253L17 310.823V312.441L24.0685 308.906L23.14 308.253Z" fill="#C2185B"/>
<path d="M17 294.495L20.99 296.86L21.226 297H21.5H24.495L24.945 297.4L23.6045 308.58L17 311.882L10.3955 308.58L9.055 297.4L9.505 297H12.5H12.774L13.01 296.86L17 294.495ZM17 293.333L12.5 296H9.125L8 297L9.467 309.233L17 313L24.533 309.233L26 297L24.875 296H21.5L17 293.333Z" fill="#FFCA28"/>
<rect x="1" y="336" width="32" height="32" rx="8" fill="#134887"/>
<path d="M17 341.333V362.5L9 358.5L7.375 345.666L7.75 345L9.125 344H12.5L17 341.333Z" fill="#F57F17"/>
<path d="M17 352.5V362.5L9 358.5L11.5 352.5H17Z" fill="#827717"/>
<path d="M17 341.333V362.5L25 358.5L26.625 345.666L26.25 345L24.875 344H21.5L17 341.333Z" fill="#F9A825"/>
<path d="M17 352.5V362.5L25 358.5L22.5 352.5H17Z" fill="#603813"/>
<path d="M9.69917 357.07L8.26367 345.1L9.22017 344.25H12.5687L17.0002 341.624L21.4317 344.25H24.7802L25.7367 345.1L24.3012 357.07L17.0002 360.72L9.69917 357.07Z" fill="#178CF8"/>
<path d="M15.7505 347L12.584 349.583L12.0005 348.833L10.334 349.917L12.5005 355.667C12.5005 355.667 14.438 354.813 16.2505 354.833C17.503 354.848 19.584 355.25 19.584 355.25L21.366 354.762L15.7505 347Z" fill="#124D84"/>
<path d="M20.0859 350.008H19.5859L21.4999 348H21.9999L20.0859 350.008Z" fill="#F57F17"/>
<path d="M13.914 350.008H14.414L12.5 348H12L13.914 350.008Z" fill="#FDD835"/>
<path d="M22.0004 348L20.1484 349.943L18.0419 346H17.0004H15.9589L13.8529 349.943L12.0004 348L11.4014 348.575L12.6354 354.762C13.7439 354.198 14.7864 353.495 17.0004 353.5C19.2144 353.495 20.2569 354.198 21.3654 354.762L22.5994 348.575L22.0004 348Z" fill="#FFB300"/>
<path d="M17.0004 346H15.9589L13.8529 349.943L12.0004 348L11.4014 348.575L12.6354 354.762C13.7439 354.198 14.7864 353.495 17.0004 353.5V346Z" fill="#FF6D00"/>
<path d="M24.6848 344.5H21.4998H21.3628L21.2448 344.43L16.9998 341.914L12.7548 344.43L12.6368 344.5H12.4998H9.31484L8.52734 345.2L9.93084 356.906L16.9998 360.441L24.0683 356.906L25.4723 345.2L24.6848 344.5ZM23.1398 356.253L16.9998 358.823L11.3598 356.253L10.0823 345.6L10.1948 345.5H12.4998H12.9108L13.2643 345.29L16.9998 343.077L20.7353 345.29L21.0888 345.5H21.4998H24.3043L24.4168 345.6L23.1398 356.253Z" fill="#124D84"/>
<path d="M16.9998 341.989L12.6562 344.489L12.8932 345.5L16.9998 343.077V341.989Z" fill="#1D73C4"/>
<path d="M8.81445 344.489H12.6305L12.894 345.5H10.2075L8.81445 344.489Z" fill="#1E6BB1"/>
<path d="M17 341.989L21.3435 344.489L21.1065 345.5L17 343.077V341.989Z" fill="#EC407A"/>
<path d="M24.685 344.5H21.5H21.363L21.245 344.43L17 341.914V343.077L20.7355 345.29L21.089 345.5H21.5H24.3045L24.4175 345.6L23.14 356.253L17 358.823V360.441L24.0685 356.906L25.4725 345.2L24.685 344.5Z" fill="#17B4F8"/>
<path d="M24.7419 344.489H21.3699L21.1064 345.5H24.2929L24.7419 344.489Z" fill="#17B4F8"/>
<path d="M23.14 356.253L17 358.823V360.441L24.0685 356.906L23.14 356.253Z" fill="#226DB1"/>
<path d="M17 342.495L20.99 344.86L21.226 345H21.5H24.495L24.945 345.4L23.6045 356.58L17 359.882L10.3955 356.58L9.055 345.4L9.505 345H12.5H12.774L13.01 344.86L17 342.495ZM17 341.333L12.5 344H9.125L8 345L9.467 357.233L17 361L24.533 357.233L26 345L24.875 344H21.5L17 341.333Z" fill="#FFCA28"/>
<rect x="1" y="384" width="32" height="32" rx="8" fill="#080911"/>
<g clip-path="url(#clip1_133_2)">
<path d="M11.9456 394.951C12.609 394.288 13.3966 393.762 14.2634 393.403C15.1302 393.044 16.0592 392.859 16.9974 392.859C17.9357 392.859 18.8647 393.044 19.7315 393.403C20.5983 393.762 21.3859 394.288 22.0493 394.951L24.0676 392.933C23.1389 392.004 22.0362 391.266 20.8224 390.763C19.6087 390.26 18.3077 390.001 16.9938 390.001C15.6799 390.001 14.3789 390.26 13.1651 390.763C11.9514 391.266 10.8486 392.004 9.91992 392.933L11.9456 394.951Z" fill="#ED6516"/>
<path d="M24.656 393.569L22.6239 395.605C23.5145 396.743 24.0388 398.126 24.1278 399.569C24.2167 401.012 23.866 402.448 23.122 403.687L19.444 400.008L17.4404 395.296H17.4303V401.66L21.4 405.629C20.1429 406.613 18.5926 407.148 16.9963 407.148C15.4001 407.148 13.8498 406.613 12.5927 405.629L16.5651 401.66V395.32L14.5514 400.008L10.8725 403.687C10.1284 402.448 9.77769 401.011 9.8668 399.568C9.9559 398.125 10.4806 396.743 11.3716 395.605L9.33945 393.569C8.11591 395.027 7.33398 396.804 7.08554 398.691C6.8371 400.579 7.13248 402.498 7.93696 404.223C8.74145 405.948 10.0216 407.408 11.627 408.431C13.2325 409.453 15.0965 409.997 17 409.997C18.9035 409.997 20.7675 409.453 22.373 408.431C23.9784 407.408 25.2586 405.948 26.0631 404.223C26.8675 402.498 27.1629 400.579 26.9145 398.691C26.666 396.804 25.8841 395.027 24.6606 393.569H24.656Z" fill="white"/>
</g>
<rect width="32" height="32" rx="8" fill="#178CF8"/>
<rect x="8" y="8" width="7" height="7" rx="1.5" fill="white"/>
<rect x="8" y="17" width="7" height="7" rx="1.5" fill="white" fill-opacity="0.6"/>
<rect x="17" y="8" width="7" height="7" rx="1.5" fill="white" fill-opacity="0.6"/>
<rect x="17" y="17" width="7" height="7" rx="1.5" fill="white"/>
<defs>
<clipPath id="clip0_133_2">
<rect width="20" height="20" fill="white" transform="translate(7 54)"/>
</clipPath>
<clipPath id="clip1_133_2">
<rect width="20" height="20" fill="white" transform="translate(7 390)"/>
</clipPath>
</defs>
</svg>
